HIERARCHY
ROOT hip
{
  OFFSET 0 0 0
  CHANNELS 6 Xposition Yposition Zposition Zrotation Yrotation Xrotation
  JOINT abdomen
  {
    OFFSET 0 20.6881 -0.73152
    CHANNELS 3 Zrotation Xrotation Yrotation
    JOINT chest
    {
      OFFSET 0 11.7043 -0.48768
      CHANNELS 3 Zrotation Xrotation Yrotation
      JOINT neck
      {
        OFFSET 0 22.1894 -2.19456
        CHANNELS 3 Zrotation Xrotation Yrotation
        JOINT head
        {
          OFFSET -0.24384 7.07133 1.2192
          CHANNELS 3 Zrotation Xrotation Yrotation
          JOINT leftEye
          {
            OFFSET 4.14528 8.04674 8.04672
            CHANNELS 3 Zrotation Xrotation Yrotation
            End Site
            {
              OFFSET 1 0 0
            }
          }
          JOINT rightEye
          {
            OFFSET -3.6576 8.04674 8.04672
            CHANNELS 3 Zrotation Xrotation Yrotation
            End Site
            {
              OFFSET 1 0 0
            }
          }
        }
      }
      JOINT rCollar
      {
        OFFSET -2.68224 19.2634 -4.8768
        CHANNELS 3 Zrotation Xrotation Yrotation
        JOINT rShldr
        {
          OFFSET -8.77824 -1.95073 1.46304
          CHANNELS 3 Zrotation Xrotation Yrotation
          JOINT rForeArm
          {
            OFFSET -28.1742 -1.7115 0.48768
            CHANNELS 3 Zrotation Xrotation Yrotation
            JOINT rHand
            {
              OFFSET -22.5879 0.773209 7.07136
              CHANNELS 3 Zrotation Xrotation Yrotation
              JOINT rThumb1
              {
                OFFSET -1.2192 -0.487915 3.41376
                CHANNELS 3 Zrotation Xrotation Yrotation
                JOINT rThumb2
                {
                  OFFSET -3.37035 -0.52449 3.41376
                  CHANNELS 3 Zrotation Xrotation Yrotation
                  End Site
                  {
                    OFFSET -1.78271 -1.18214 1.43049
                  }
                }
              }
              JOINT rIndex1
              {
                OFFSET -7.75947 0.938293 5.60832
                CHANNELS 3 Zrotation Xrotation Yrotation
                JOINT rIndex2
                {
                  OFFSET -2.54057 -0.884171 1.56538
                  CHANNELS 3 Zrotation Xrotation Yrotation
                  End Site
                  {
                    OFFSET -1.62519 -0.234802 1.16502
                  }
                }
              }
              JOINT rMid1
              {
                OFFSET -8.24714 1.18213 3.41376
                CHANNELS 3 Zrotation Xrotation Yrotation
                JOINT rMid2
                {
                  OFFSET -3.10165 -0.590103 1.0647
                  CHANNELS 3 Zrotation Xrotation Yrotation
                  End Site
                  {
                    OFFSET -2.48547 -0.328903 0.83742
                  }
                }
              }
              JOINT rRing1
              {
                OFFSET -8.82822 0.546677 1.51678
                CHANNELS 3 Zrotation Xrotation Yrotation
                JOINT rRing2
                {
                  OFFSET -2.60934 -0.819778 -0.0198488
                  CHANNELS 3 Zrotation Xrotation Yrotation
                  End Site
                  {
                    OFFSET -2.33842 -0.294052 0.168128
                  }
                }
              }
              JOINT rPinky1
              {
                OFFSET -8.27202 -0.0477905 -0.4584
                CHANNELS 3 Zrotation Xrotation Yrotation
                JOINT rPinky2
                {
                  OFFSET -1.82734 -0.647385 -0.700984
                  CHANNELS 3 Zrotation Xrotation Yrotation
                  End Site
                  {
                    OFFSET -1.69225 -0.51767 -0.607171
                  }
                }
              }
            }
          }
        }
      }
      JOINT lCollar
      {
        OFFSET 2.68224 19.2634 -4.8768
        CHANNELS 3 Zrotation Xrotation Yrotation
        JOINT lShldr
        {
          OFFSET 8.77824 -1.95073 1.46304
          CHANNELS 3 Zrotation Xrotation Yrotation
          JOINT lForeArm
          {
            OFFSET 28.1742 -1.7115 0.48768
            CHANNELS 3 Zrotation Xrotation Yrotation
            JOINT lHand
            {
              OFFSET 22.5879 0.773209 7.07136
              CHANNELS 3 Zrotation Xrotation Yrotation
              JOINT lThumb1
              {
                OFFSET 1.2192 -0.487915 3.41376
                CHANNELS 3 Zrotation Xrotation Yrotation
                JOINT lThumb2
                {
                  OFFSET 3.37035 -0.52449 3.41376
                  CHANNELS 3 Zrotation Xrotation Yrotation
                  End Site
                  {
                    OFFSET 1.78271 -1.18214 1.43049
                  }
                }
              }
              JOINT lIndex1
              {
                OFFSET 7.75947 0.938293 5.60832
                CHANNELS 3 Zrotation Xrotation Yrotation
                JOINT lIndex2
                {
                  OFFSET 2.54057 -0.884171 1.56538
                  CHANNELS 3 Zrotation Xrotation Yrotation
                  End Site
                  {
                    OFFSET 1.62519 -0.234802 1.16502
                  }
                }
              }
              JOINT lMid1
              {
                OFFSET 8.24714 1.18213 3.41376
                CHANNELS 3 Zrotation Xrotation Yrotation
                JOINT lMid2
                {
                  OFFSET 3.10165 -0.590103 1.0647
                  CHANNELS 3 Zrotation Xrotation Yrotation
                  End Site
                  {
                    OFFSET 2.48547 -0.328903 0.83742
                  }
                }
              }
              JOINT lRing1
              {
                OFFSET 8.82822 0.546677 1.51678
                CHANNELS 3 Zrotation Xrotation Yrotation
                JOINT lRing2
                {
                  OFFSET 2.60934 -0.819778 -0.0198488
                  CHANNELS 3 Zrotation Xrotation Yrotation
                  End Site
                  {
                    OFFSET 2.33842 -0.294052 0.168128
                  }
                }
              }
              JOINT lPinky1
              {
                OFFSET 8.27202 -0.0477905 -0.4584
                CHANNELS 3 Zrotation Xrotation Yrotation
                JOINT lPinky2
                {
                  OFFSET 1.82734 -0.647385 -0.700984
                  CHANNELS 3 Zrotation Xrotation Yrotation
                  End Site
                  {
                    OFFSET 1.69225 -0.51767 -0.607171
                  }
                }
              }
            }
          }
        }
      }
    }
  }
  JOINT rButtock
  {
    OFFSET -8.77824 4.35084 1.2192
    CHANNELS 3 Zrotation Xrotation Yrotation
    JOINT rThigh
    {
      OFFSET 0 -1.70687 -2.19456
      CHANNELS 3 Zrotation Xrotation Yrotation
      JOINT rShin
      {
        OFFSET 0 -36.8199 0.73152
        CHANNELS 3 Zrotation Xrotation Yrotation
        JOINT rFoot
        {
          OFFSET 0.73152 -45.1104 -5.12064
          CHANNELS 3 Zrotation Xrotation Yrotation
          End Site
          {
            OFFSET -1.1221 -3.69964 12.103
          }
        }
      }
    }
  }
  JOINT lButtock
  {
    OFFSET 8.77824 4.35084 1.2192
    CHANNELS 3 Zrotation Xrotation Yrotation
    JOINT lThigh
    {
      OFFSET 0 -1.70687 -2.19456
      CHANNELS 3 Zrotation Xrotation Yrotation
      JOINT lShin
      {
        OFFSET 0 -36.8199 0.73152
        CHANNELS 3 Zrotation Xrotation Yrotation
        JOINT lFoot
        {
          OFFSET -0.73152 -45.1104 -5.12064
          CHANNELS 3 Zrotation Xrotation Yrotation
          End Site
          {
            OFFSET 1.1221 -3.69964 12.103
          }
        }
      }
    }
  }
}
MOTION
Frames:	4
Frame Time:	0.03333
0.0 0.0 0.0 0.0 0.0 0.0 0.0 0.0 0.0 0.0 0.0 0.0 0.0 0.0 0.0 0.0 0.0 0.0 0.0 0.0 0.0 0.0 0.0 0.0 0.0 0.0 0.0 0.0 0.0 0.0 0.0 0.0 0.0 0.0 0.0 0.0 0.0 0.0 0.0 0.0 0.0 0.0 0.0 0.0 0.0 0.0 0.0 0.0 0.0 0.0 0.0 0.0 0.0 0.0 0.0 0.0 0.0 0.0 0.0 0.0 0.0 0.0 0.0 0.0 0.0 0.0 0.0 0.0 0.0 0.0 0.0 0.0 0.0 0.0 0.0 0.0 0.0 0.0 0.0 0.0 0.0 0.0 0.0 0.0 0.0 0.0 0.0 0.0 0.0 0.0 0.0 0.0 0.0 0.0 0.0 0.0 0.0 0.0 0.0 0.0 0.0 0.0 0.0 0.0 0.0 0.0 0.0 0.0 0.0 0.0 0.0 0.0 0.0 0.0 0.0 0.0 0.0 0.0 0.0 0.0 0.0 0.0 0.0 0.0 0.0 0.0 0.0 0.0 0.0 0.0 0.0 0.0
-0.0292 7.130400000000001 -0.0007999999999999999 -177.98345 -73.148465 176.862858 -0.164503 0.288348 173.750252 15.722746 9.922849 -140.370971 17.370392 -0.205445 -53.612983 96.08435 61.658359 -179.573786 0.518667 -0.016633 -3.67355 3.306489 -0.027663 -0.958399 96.69692 79.011933 -126.927933 90.381103 46.355219 88.284004 -4.650851 -12.797404 -1.534208 -4.133469 29.854034 15.713212 17.006089 9.279208 112.048641 178.192242 14.778392 -107.107055 136.821729 -68.797404 -91.954806 24.002624 19.373079 -179.940405 158.573955 87.339317 -165.19437 -133.080552 62.113217 -58.546965 54.680932 32.09729 146.211196 -158.983579 3.361406 -5.209431 -173.299301 -50.406164 25.392238 -178.804561 -7.191386 40.076897 -52.056886 -59.322212 23.737664 167.384696 -1.289627 -170.329231 -167.688059 -83.102431 68.201214 18.500667 5.11873 127.519552 94.869177 69.906229 -49.866132 -11.879283 -34.207272 11.569806 168.572911 -32.896651 -169.259436 -1.577658 5.708488 19.689848 4.312057 -2.362626 -148.136647 -89.272371 -49.699231 108.104057 -148.486403 38.522061 -22.922759 -138.009241 77.166924 -58.853518 29.438595 -52.836202 -15.83765 -1.725648 4.718236 16.535243 -74.111829 23.783228 -96.548128 -8.801229 78.943417 14.625686 -4.559414 2.385961 -150.302236 -109.816021 -27.008427 -94.244613 -41.178909 1.702344 -81.144097 10.010104 38.677709 -0.0 1.735181 -0.261253 91.374298 109.166185 22.43777 72.926449
-0.097 10.5088 -0.0888 171.8249 5.327841 -177.325156 -21.582581 24.975703 0.0 -104.649762 -54.596021 -64.133872 116.177625 34.04962 -23.8242 -9.896707 31.09336 -100.178248 -46.094969 -1.567375 3.682972 -35.483397 -2.108982 6.585234 -60.545781 -34.098468 -128.030108 -56.756724 -39.222279 -49.706364 -17.638548 -17.366403 -112.301838 139.627348 -43.712116 128.496704 -4.251872 6.830284 -9.129258 152.065785 -59.268405 70.850329 -21.755355 -5.190144 -8.44435 169.447623 45.964043 -36.225586 86.560175 65.954923 35.213592 -158.008714 -5.198568 -57.047259 -22.729199 13.926846 -175.539606 -97.220288 -26.202799 -144.277922 32.953099 -21.066531 -19.657837 82.673421 5.759194 3.333635 72.633039 36.623787 -44.314951 90.487137 -37.156838 148.488995 58.830123 45.535742 146.616255 137.499466 -76.030507 -149.507088 99.948353 80.215635 -42.420461 10.376832 -39.089789 -72.181483 -38.563369 59.47098 66.265617 169.108599 45.058165 -110.083039 33.608779 -35.069777 73.484197 -118.977041 -49.83433 -69.512249 -39.132414 37.351884 21.904138 -163.154717 43.534082 176.833651 -38.900655 45.304821 25.440568 41.77256 65.611981 -62.880214 44.966422 56.619313 54.204674 -105.912728 -28.644868 -30.636007 78.026101 39.510347 -59.332408 -42.819351 17.272014 -60.431656 75.622179 17.909613 27.936205 -125.885917 23.585115 106.144788 65.922619 -24.744834 -159.030917 -142.665784 -28.676903 -127.169293
-0.2127 14.0603 -0.20639999999999997 171.167671 8.744465 -177.680418 -41.044336 38.216833 -64.082508 102.827263 -40.98936 124.906934 102.805138 22.170515 7.731088 13.579675 35.279845 -138.934573 -44.076685 -0.446259 1.102377 -38.70405 -0.806908 2.297207 87.431074 44.920929 -50.579761 66.396575 -19.18373 57.571656 -12.58682 -26.359039 51.956182 -21.276722 37.008761 13.030292 -5.201574 10.081869 4.448924 17.354703 4.657046 27.810867 47.371181 66.125825 -44.8066 161.359462 -43.343827 -22.484064 -8.021612 0.019205 162.063833 111.657901 -55.272584 -83.745215 -18.028443 -5.19305 -174.846069 29.471211 33.765294 -9.302894 -3.432784 57.763138 129.976412 170.636035 -44.885391 162.803244 17.617445 -22.10495 -39.641364 -105.594079 24.181494 97.159628 178.740956 8.022414 -28.146885 147.01575 9.29781 -98.074153 11.814622 -15.379564 35.534787 -20.176019 19.557349 2.962585 11.379542 -12.760449 70.481434 12.996783 9.060647 -18.683409 30.715733 -22.999613 79.717901 89.132587 -5.234981 -85.090569 -89.295572 69.173802 67.807953 8.043471 -14.056662 3.072857 80.64606 -22.044169 55.958471 -41.758333 -16.891506 37.598071 -5.047311 7.990219 32.431171 -21.171653 -64.787257 -23.175202 80.168271 68.618592 -167.196241 56.834183 -2.716372 36.964624 8.860996 10.998315 -0.0 -45.732812 -14.991789 -75.848049 -74.052858 22.092538 -85.996263 144.998377 4.615891 80.311905
